<?xml version="1.0" encoding="iso-8859-1"?>
<!-- Generator: Adobe Illustrator 19.0.0, SVG Export Plug-In . SVG Version: 6.00 Build 0)  -->
<svg version="1.1" id="Capa_1" xmlns="http://www.w3.org/2000/svg" xmlns:xlink="http://www.w3.org/1999/xlink" x="0px" y="0px"
	 viewBox="0 0 431.543 431.543" style="enable-background:new 0 0 431.543 431.543;" xml:space="preserve">
<g>
	<polygon style="fill:#FFBF67;" points="431.543,339.592 339.592,431.543 318.171,344.816 313.469,340.114 339.069,313.992 
		342.204,317.127 	"/>
	<path style="fill:#4ED9DA;" d="M361.535,253.91c7.978,14.294,5.642,32.128-5.747,43.886l-16.718,16.196l-25.6,26.122
		l-15.673,15.673c-14.398,14.002-37.325,14.002-51.722,0l-29.78-29.78L361.535,253.91z"/>
	<path style="fill:#FF67B3;" d="M361.535,253.91l-145.241,72.098L179.2,288.914l0,0l146.808-72.62l29.78,29.78
		C357.991,248.462,359.919,251.091,361.535,253.91z"/>
	<polygon style="fill:#4ED9DA;" points="288.914,179.2 326.008,216.294 179.2,288.914 179.2,288.914 142.629,252.343 
		142.629,252.343 	"/>
	<polygon style="fill:#FF67B3;" points="252.343,142.629 288.914,179.2 142.629,252.343 142.629,252.343 105.535,215.249 	"/>
	<path style="fill:#4ED9DA;" d="M215.249,105.535l37.094,37.094l-146.808,72.62l-29.78-29.78c-2.203-2.389-4.131-5.017-5.747-7.837
		L215.249,105.535z"/>
	<path style="fill:#FF67B3;" d="M215.249,105.535L70.008,177.633c-7.978-14.294-5.642-32.128,5.747-43.886l16.718-16.196
		l24.033-24.555l17.241-17.241c14.398-14.002,37.325-14.002,51.722,0L215.249,105.535z"/>
	<polygon style="fill:#FFBF67;" points="117.029,92.996 92.473,117.551 89.339,114.416 0,91.951 91.951,0 114.939,91.429 	"/>
</g>
<g>
</g>
<g>
</g>
<g>
</g>
<g>
</g>
<g>
</g>
<g>
</g>
<g>
</g>
<g>
</g>
<g>
</g>
<g>
</g>
<g>
</g>
<g>
</g>
<g>
</g>
<g>
</g>
<g>
</g>
</svg>
