<?xml version="1.0" encoding="iso-8859-1"?>
<!-- Generator: Adobe Illustrator 19.0.0, SVG Export Plug-In . SVG Version: 6.00 Build 0)  -->
<svg version="1.1" id="Capa_1" xmlns="http://www.w3.org/2000/svg" xmlns:xlink="http://www.w3.org/1999/xlink" x="0px" y="0px"
	 viewBox="0 0 437.189 437.189" style="enable-background:new 0 0 437.189 437.189;" xml:space="preserve">
<path style="fill:#FFC97B;" d="M218.743,231.315c-40,0-72-19.2-72-42.8s32-42.8,72-42.8s72,19.2,72,42.8
	S258.743,231.315,218.743,231.315z"/>
<path style="fill:#F48967;" d="M405.543,291.155c-5.6-1.52-11.2-2.96-16.88-4.32c-18.48-4.48-37.44-8-56.8-11.12l-6.8-1.12v-14.56
	c0-74.32-21.92-141.36-57.28-175.04l8-13.44c82.806,25.514,139.462,101.833,139.92,188.48v33.84L405.543,291.155z"/>
<g>
	<path style="fill:#FFC97B;" d="M364.903,330.595c-10.714-0.221-21.403-1.129-32-2.72c-53.28-7.36-113.76-9.12-114.32-9.12
		s-60.8,1.76-114,9.12c-10.598,1.59-21.286,2.498-32,2.72c-12.72,0-20.32-2.16-24.72-6.88s-5.28-13.52-2-27.12l2.4-9.68l4.88-1.04
		c56.17-12.197,113.481-18.365,170.96-18.4c53.853-0.171,107.544,5.896,160,18.08l4.72,1.12l2.48,10c3.28,13.52,2.72,21.92-2,27.04
		S377.623,330.595,364.903,330.595z"/>
	<path style="fill:#FFC97B;" d="M394.743,374.115c-12.859-0.291-25.686-1.414-38.4-3.36c-64-8.8-136.8-10.96-137.52-10.96
		s-73.68,2.16-137.28,10.96c-12.714,1.945-25.541,3.067-38.4,3.36c-15.2,0-24.64-2.64-29.76-8s-6.32-16-2.32-32.64
		c5.04-20.88,8-30.56,9.28-35.04l1.36-4.08l4.16-1.12l9.68-2.64l12.48-3.12l-2.72,12.56c-2.56,11.76-1.68,19.44,2.64,24
		s12.24,6.88,25.04,6.88c10.716-0.19,21.406-1.098,32-2.72c48.8-6.72,103.04-8.8,113.36-9.12c1.36,0,61.84,1.76,114.96,9.12
		c10.435,1.604,20.965,2.512,31.52,2.72c12.88,0,20.88-2.16,25.12-6.88s5.12-12.48,2.64-24l-2.8-12.8l14.72,3.92l8,2.16l4.08,1.2
		l1.36,4.08c1.44,4.32,4.16,13.92,9.28,34.96c4,16,3.28,26.4-2.32,32.64s-14.56,8-29.76,8L394.743,374.115z"/>
</g>
<g>
	<path style="fill:#F48967;" d="M21.783,260.035c0.479-86.69,57.21-163.023,140.08-188.48l8,13.44
		c-35.36,33.68-57.28,100.8-57.28,175.04v15.44l-6.8,1.04c-24.833,3.58-49.455,8.493-73.76,14.72l-10,2.64L21.783,260.035z"/>
	<path style="fill:#F48967;" d="M112.423,260.035c0-110.4,46.72-196.88,106.32-196.96s106.32,86.56,106.32,196.96v14.56l-8.96-1.12
		c-30.465-3.807-61.138-5.704-91.84-5.68c-34.376,0.099-68.711,2.37-102.8,6.8l-9.04,1.12L112.423,260.035z M218.743,145.635
		c-40,0-72,19.2-72,42.8s32,42.8,72,42.8s72-19.2,72-42.8S258.743,145.635,218.743,145.635z"/>
</g>
<g>
	<path style="fill:#4C382B;" d="M423.703,292.275v-32c0-113.222-91.738-205.032-204.96-205.12
		c-113.129,0.088-204.828,91.752-204.96,204.88v32c-4.466,12.86-8.152,25.977-11.04,39.28c-3.12,12.96-5.52,29.12,4.16,40
		c7.04,7.28,17.76,10.72,35.84,10.72c13.396-0.244,26.759-1.394,40-3.44c64-8.8,136-10.88,136-10.88s72.48,2.16,136,10.88
		c44.32,6.16,64.64,4.08,75.2-7.52s7.36-26.96,4.16-40C431.419,317.944,427.946,304.987,423.703,292.275L423.703,292.275z
		 M407.703,260.275v23.12c-5.6-1.52-11.36-2.96-17.12-4.32h-0.4c-18.613-4.533-37.653-8.24-57.12-11.12v-8
		c0-79.28-24-146.64-59.76-180.88c79.764,24.138,134.343,97.623,134.4,180.96V260.275z M383.703,318.835
		c-6.08,6.72-31.2,4.16-49.6,1.6c-54.16-7.52-114.8-9.2-115.28-9.2s-61.12,1.68-115.28,9.2c-18.4,2.56-43.52,5.12-49.6-1.6
		c-2.56-2.88-2.64-9.52,0-19.84l1.2-4.8c55.623-12.048,112.367-18.162,169.28-18.24c53.286-0.204,106.416,5.782,158.32,17.84
		l1.28,5.2c2.24,10.08,2.24,16.72-0.4,19.6L383.703,318.835z M218.743,71.155c54.24,0,98.32,84.72,98.32,188.96v5.44
		c-30.809-3.864-61.83-5.788-92.88-5.76c-34.772,0.014-69.508,2.232-104,6.64v-6.32C120.423,155.875,164.503,71.155,218.743,71.155
		L218.743,71.155z M29.783,260.035c0.119-83.298,54.68-156.728,134.4-180.88c-35.84,34.24-59.76,101.6-59.76,180.88v8.56
		c-25.13,3.611-50.047,8.578-74.64,14.88V260.035z M418.343,360.435c-8,8.56-36.72,5.76-61.12,2.4
		c-64-8.8-137.84-11.04-138.48-11.04s-74.56,2.24-138.48,11.04c-24,3.36-53.36,6.16-61.12-2.4c-3.52-3.92-3.68-12.24-0.48-25.36
		c5.2-21.28,8-30.56,9.12-34.48l9.68-2.56c-2.24,10.48-3.28,22.72,4.48,31.28c10.4,11.52,32,11.12,64,6.72
		c52.72-7.28,112.8-8.96,112.8-9.04s60.4,1.76,113.28,9.04c10.832,1.661,21.763,2.596,32.72,2.8c14.24,0,24.72-2.56,30.96-9.52
		c8-8.56,6.72-20.88,4.48-31.36l9.76,2.64c1.28,3.92,4,13.2,9.12,34.4C422.023,348.195,421.863,356.515,418.343,360.435
		L418.343,360.435z"/>
	<path style="fill:#4C382B;" d="M218.743,239.315c44.88,0,80-22.32,80-50.8s-35.2-50.8-80-50.8s-80,22.32-80,50.8
		S173.863,239.315,218.743,239.315z M218.743,153.635c34.72,0,64,16,64,34.8s-29.36,34.8-64,34.8s-64-16-64-34.8
		S184.023,153.635,218.743,153.635z"/>
</g>
<g>
</g>
<g>
</g>
<g>
</g>
<g>
</g>
<g>
</g>
<g>
</g>
<g>
</g>
<g>
</g>
<g>
</g>
<g>
</g>
<g>
</g>
<g>
</g>
<g>
</g>
<g>
</g>
<g>
</g>
</svg>
